<?xml version="1.0" encoding="UTF-8"?>
<svg id="Layer_2" data-name="Layer 2" xmlns="http://www.w3.org/2000/svg" viewBox="0 0 156.32 126.83">
  <defs>
    <style>
      .cls-1 {
        opacity: .5;
      }

      .cls-1, .cls-2 {
        fill: gold;
        stroke-width: 0px;
      }
    </style>
  </defs>
  <g id="Layer_1-2" data-name="Layer 1">
    <path class="cls-1" d="M145.8,16.68H36.93c-5.81,0-10.52,4.71-10.52,10.52v64.43c0,5.81,4.71,10.52,10.52,10.52h74.43c9.26,16.24,29.25,24.68,29.25,24.68,0,0-5.05-14.49-1.75-24.68h6.95c5.81,0,10.52-4.71,10.52-10.52V27.2c0-5.81-4.71-10.52-10.52-10.52Z"/>
    <path class="cls-2" d="M119.22,0H10.69C4.79,0,0,4.79,0,10.69v57.68c0,9.29,7.42,16.83,16.65,17.07-7.32,6.54-7.49,26.1-7.49,26.1,0,0,5.28-16.93,29.38-26.08h80.68c5.91,0,10.69-4.79,10.69-10.69V10.69c0-5.91-4.79-10.69-10.69-10.69Z"/>
  </g>
</svg>