<?xml version="1.0" encoding="UTF-8"?>
<svg id="Layer_2" data-name="Layer 2" xmlns="http://www.w3.org/2000/svg" viewBox="0 0 161.68 98.06">
  <defs>
    <style>
      .cls-1 {
        stroke-width: 0px;
      }

      .cls-1, .cls-2 {
        fill: gold;
      }

      .cls-2 {
        stroke: gold;
        stroke-miterlimit: 10;
      }
    </style>
  </defs>
  <g id="Layer_1-2" data-name="Layer 1">
    <g>
      <path class="cls-1" d="M149.18,12v73.56H12.5V12h136.68M154.28,0H5.83C2.88,0,.5,2.38.5,5.33v92.24h160.68V6.9c0-3.81-3.09-6.9-6.9-6.9h0Z"/>
      <path class="cls-2" d="M152.28,11.27h-7.33c-5.89,0-42.56,22.79-57.52,32.24-3.88,2.45-8.81,2.46-12.69.02C59.71,34.09,22.78,11.27,16.66,11.27H7.55c-3.89,0-7.05,3.16-7.05,7.05v79.24h16.16v-63.45c0-1.65,1.78-2.69,3.22-1.87l60.14,34.41c.66.38,1.48.38,2.14,0l59.85-34.39c1.43-.82,3.22.21,3.22,1.86v63.44h15.95V20.18c0-4.92-3.99-8.91-8.91-8.91Z"/>
    </g>
  </g>
</svg>