<svg width="159" height="198" viewBox="0 0 159 198" fill="none" xmlns="http://www.w3.org/2000/svg">
<g clip-path="url(#clip0_185_63)">
<path d="M79.5 3.2825C46.3739 3.2825 19.5099 30.0808 19.5099 63.1421V97.8052H30.4686V63.1421C30.4686 36.1206 52.4124 14.2198 79.4868 14.2198C106.561 14.2198 128.505 36.1206 128.505 63.1421V97.8052H139.464V63.1421C139.464 30.0808 112.613 3.2825 79.4868 3.2825H79.5Z" fill="#FFD700" stroke="#FFD700" stroke-width="5" stroke-miterlimit="10"/>
<path d="M133.386 84.3207H25.6142C11.4718 84.3207 0 95.77 0 109.885V172.436C0 186.551 11.4718 198 25.6142 198H133.373C147.515 198 158.987 186.551 158.987 172.436V109.885C158.987 95.77 147.515 84.3207 133.373 84.3207H133.386ZM86.4462 148.513C86.4462 151.782 83.7888 154.435 80.513 154.435H78.4739C75.1981 154.435 72.5406 151.782 72.5406 148.513V133.808C72.5406 130.538 75.1981 127.886 78.4739 127.886H80.513C83.7888 127.886 86.4462 130.538 86.4462 133.808V148.513Z" fill="#FFD700"/>
</g>
<defs>
<clipPath id="clip0_185_63">
<rect width="159" height="198" fill="white"/>
</clipPath>
</defs>
</svg>
