<?xml version="1.0" encoding="UTF-8"?>
<svg id="Layer_2" data-name="Layer 2" xmlns="http://www.w3.org/2000/svg" viewBox="0 0 98.17 147.71">
  <defs>
    <style>
      .cls-1 {
        fill: #e5e5e3;
        opacity: .91;
      }

      .cls-1, .cls-2, .cls-3, .cls-4, .cls-5, .cls-6, .cls-7 {
        stroke-width: 0px;
      }

      .cls-2 {
        fill: gold;
      }

      .cls-3 {
        opacity: .5;
      }

      .cls-3, .cls-4, .cls-6 {
        fill: #fff;
      }

      .cls-5 {
        opacity: .88;
      }

      .cls-5, .cls-7 {
        fill: #424242;
      }

      .cls-6 {
        opacity: .75;
      }

      .cls-8 {
        opacity: .79;
      }

      .cls-9 {
        opacity: .61;
      }
    </style>
  </defs>
  <g id="Layer_1-2" data-name="Layer 1">
    <g>
      <rect class="cls-1" x="2.75" width="92.66" height="147.12" rx="9.74" ry="9.74"/>
      <path class="cls-5" d="M18.37,0c1.66,4.54,5.75,14.67,9.24,14.67h43.96c4.21,0,7.13-10.13,8.22-14.67H18.37Z"/>
      <path class="cls-5" d="M95.41,140.36v-13.84l-9.74,7.6H12.76l-10.01-7.51v13.74c0,4.06,3.29,7.35,7.35,7.35h77.96c4.06,0,7.35-3.29,7.35-7.35Z"/>
      <g>
        <rect class="cls-2" y="24.36" width="98.17" height="57" rx="9.83" ry="9.83"/>
        <rect class="cls-6" x="7.69" y="32.51" width="23.52" height="19.45" rx="9.73" ry="9.73"/>
        <rect class="cls-3" x="37.18" y="36.09" width="23.52" height="1.28" rx=".64" ry=".64"/>
        <rect class="cls-3" x="37.18" y="40.29" width="34.24" height="1.28" rx=".64" ry=".64"/>
        <rect class="cls-3" x="37.18" y="44.54" width="51.42" height="1.28" rx=".64" ry=".64"/>
        <g class="cls-8">
          <rect class="cls-6" x="79.09" y="60.85" width="15.36" height="4.78" rx="2.39" ry="2.39"/>
          <rect class="cls-6" x="58.33" y="60.85" width="15.36" height="4.78" rx="2.39" ry="2.39"/>
          <rect class="cls-6" x="39.73" y="60.85" width="15.36" height="4.78" rx="2.39" ry="2.39"/>
          <rect class="cls-6" x="21.81" y="60.85" width="15.36" height="4.78" rx="2.39" ry="2.39"/>
        </g>
      </g>
      <g class="cls-9">
        <circle class="cls-7" cx="49.08" cy="94.71" r="21.15"/>
        <path class="cls-4" d="M55.17,90.1h-5.36v-.89c0-.95-.06-1.57-.19-1.86s-.39-.44-.8-.44c-.33,0-.57.13-.74.38s-.25.63-.25,1.13c0,.84.17,1.43.5,1.77.33.34,1.29.99,2.89,1.96,1.36.82,2.29,1.45,2.79,1.89s.91,1.06,1.25,1.86.51,1.8.51,2.99c0,1.91-.46,3.41-1.38,4.5s-2.3,1.76-4.14,2.02v2.02h-2.47v-2.08c-1.43-.14-2.69-.69-3.76-1.65s-1.61-2.63-1.61-5.02v-1.05h5.36v1.31c0,1.44.06,2.34.17,2.69s.38.52.8.52c.36,0,.63-.12.81-.36s.27-.6.27-1.08c0-1.2-.08-2.06-.25-2.58s-.74-1.08-1.73-1.69c-1.64-1.03-2.75-1.78-3.34-2.26s-1.1-1.16-1.53-2.04-.64-1.87-.64-2.97c0-1.6.45-2.86,1.36-3.77s2.27-1.47,4.08-1.69v-1.71h2.47v1.71c1.65.21,2.89.77,3.72,1.67s1.23,2.14,1.23,3.72c0,.22-.02.56-.05,1.01Z"/>
      </g>
    </g>
  </g>
</svg>